<svg width="265" height="50" viewBox="0 0 265 50" fill="none" xmlns="http://www.w3.org/2000/svg">
<rect width="265" height="50" rx="10" fill="white"/>
<path d="M215 0H255C260.523 0 265 4.47715 265 10V40C265 45.5228 260.523 50 255 50H215V0Z" fill="#618C78"/>
<g clip-path="url(#clip0_6266_4)">
<path d="M230 18.5V16.993C230.002 16.7304 230.107 16.479 230.293 16.2932C230.478 16.1074 230.729 16.0021 230.992 16H249.008C249.556 16 250 16.445 250 16.993V33.007C249.998 33.2696 249.893 33.521 249.707 33.7068C249.522 33.8926 249.271 33.9979 249.008 34H230.992C230.729 33.9997 230.476 33.895 230.29 33.7088C230.104 33.5226 230 33.2702 230 33.007V32H248V20.3L240 27.5L230 18.5ZM228 23H233V25H228V23ZM228 28H236V30H228V28Z" fill="white"/>
</g>
<defs>
<clipPath id="clip0_6266_4">
<rect width="24" height="24" fill="white" transform="translate(228 13)"/>
</clipPath>
</defs>
</svg>
